<?xml version="1.0" encoding="UTF-8" standalone="no"?>
<!-- Created with Inkscape (http://www.inkscape.org/) -->

<svg
   width="18.761999mm"
   height="15.291mm"
   viewBox="0 0 18.761999 15.291"
   version="1.1"
   id="svg388"
   inkscape:version="1.2.2 (b0a8486541, 2022-12-01)"
   sodipodi:docname="ainoon-sticker.svg"
   xmlns:inkscape="http://www.inkscape.org/namespaces/inkscape"
   xmlns:sodipodi="http://sodipodi.sourceforge.net/DTD/sodipodi-0.dtd"
   xmlns="http://www.w3.org/2000/svg"
   xmlns:svg="http://www.w3.org/2000/svg">
  <sodipodi:namedview
     id="namedview390"
     pagecolor="#ffffff"
     bordercolor="#000000"
     borderopacity="0.25"
     inkscape:showpageshadow="2"
     inkscape:pageopacity="0.0"
     inkscape:pagecheckerboard="0"
     inkscape:deskcolor="#d1d1d1"
     inkscape:document-units="mm"
     showgrid="false"
     inkscape:zoom="8.0000001"
     inkscape:cx="55.25"
     inkscape:cy="20.1875"
     inkscape:window-width="1920"
     inkscape:window-height="1043"
     inkscape:window-x="0"
     inkscape:window-y="0"
     inkscape:window-maximized="1"
     inkscape:current-layer="layer1"
     inkscape:pageshadow="2"
     fit-margin-top="1"
     fit-margin-left="1"
     fit-margin-right="1"
     fit-margin-bottom="1" />
  <defs
     id="defs385" />
  <g
     inkscape:label="Layer 1"
     inkscape:groupmode="layer"
     id="layer1"
     transform="translate(-33.521078,-77.221239)">
    <g
       id="g1811"
       transform="translate(0.49999634,0.49995741)">
      <g
         id="g186-3-1-3"
         transform="matrix(0.20426794,-0.00531986,0.00558998,0.19439699,14.7173,67.226946)">
        <path
           style="fill:#915000;fill-opacity:1;stroke:none;stroke-width:0.264583px;stroke-linecap:butt;stroke-linejoin:miter;stroke-opacity:1"
           d="M 155.73073,86.639465 154.6219,65.631184 c -1.85462,-16.677461 -38.83557,-10.961144 -42.41971,0.225652 -0.52103,1.626188 0,18.050954 0,18.050954 z"
           id="path3573-1-5-3-6-2-61"
           inkscape:connector-curvature="0"
           sodipodi:nodetypes="ccscc" />
        <path
           style="fill:#633700;fill-opacity:1;stroke:none;stroke-width:0.264583px;stroke-linecap:butt;stroke-linejoin:miter;stroke-opacity:1"
           d="m 151.85423,82.054016 c 11.38468,1.66991 22.70863,-6.566365 24.46061,-3.87899 2.59279,4.513612 -5.06598,17.53571 -21.57768,22.979244 -45.92679,15.141 -74.754788,-3.569885 -62.133528,-20.46117 13.341318,-17.855041 38.837888,-1.633253 59.250598,1.360916 z"
           id="path3575-0-6-6-7-7-29"
           inkscape:connector-curvature="0"
           sodipodi:nodetypes="scsss" />
        <ellipse
           style="fill:#422400;fill-opacity:1;stroke:none;stroke-width:1.32433;stroke-linecap:round;stroke-linejoin:round;stroke-miterlimit:4;stroke-dasharray:none;stroke-dashoffset:0;stroke-opacity:1;paint-order:normal"
           id="path3633-3-2-7-5-0-3"
           cx="-120.18024"
           cy="110.89304"
           rx="27.60202"
           ry="7.6583619"
           transform="matrix(-0.99073324,0.13582215,0.13582215,0.99073324,0,0)"
           inkscape:transform-center-x="-3.3704927"
           inkscape:transform-center-y="-4.262483" />
        <path
           inkscape:connector-curvature="0"
           style="fill:#633700;fill-opacity:1;stroke:none;stroke-width:0.264583px;stroke-linecap:butt;stroke-linejoin:miter;stroke-opacity:1"
           d="m 109.97054,72.438558 c 12.90254,-0.01103 28.48803,7.650411 41.88385,9.615337 11.38468,1.669912 22.70827,-6.566231 24.46022,-3.878852 1.05118,1.829878 0.41679,5.058372 -1.80875,8.613221 l -13.48548,1.97717 a 7.6583622,27.602019 82.193836 0 0 -27.93244,-2.809999 7.6583622,27.602019 82.193836 0 0 -26.30345,10.76271 l -12.250818,1.79656 c -5.57469,-4.9571 -6.64181,-11.515679 -1.93007,-17.821527 4.58609,-6.137673 10.608478,-8.248809 17.366938,-8.25462 z"
           id="path3575-0-7-1-3-3-9-19" />
      </g>
      <path
         id="rect6253-7-5"
         style="fill:#eeeeee;fill-opacity:1;stroke:#eeeeee;stroke-width:0.12;stroke-linecap:round;stroke-linejoin:round;stroke-miterlimit:4;stroke-dasharray:none;stroke-opacity:1;paint-order:normal"
         d="m 44.62193,80.004717 c 0,0 -0.198361,-0.713465 -0.296261,-0.804176 -0.09788,-0.09072 -0.833635,-0.242753 -0.833635,-0.242753 0,0 0.711512,-0.152176 0.794961,-0.242885 0.08346,-0.09072 0.16819,-0.804043 0.16819,-0.804043 0,0 0.209754,0.723775 0.307653,0.814486 0.0979,0.09072 0.822241,0.232442 0.822241,0.232442 0,0 -0.701778,0.141599 -0.785231,0.232308 -0.08346,0.09072 -0.177918,0.814621 -0.177918,0.814621 z" />
      <path
         id="rect6253-7-8-9-4"
         style="fill:#eeeeee;fill-opacity:1;stroke:#eeeeee;stroke-width:0.12;stroke-linecap:round;stroke-linejoin:round;stroke-miterlimit:4;stroke-dasharray:none;stroke-opacity:1;paint-order:normal"
         d="m 43.210331,81.048138 c 0,0 -0.148203,-0.530003 -0.221478,-0.597389 -0.07328,-0.06738 -0.624178,-0.180331 -0.624178,-0.180331 0,0 0.532911,-0.113059 0.595449,-0.180429 0.06254,-0.06738 0.126339,-0.597288 0.126339,-0.597288 0,0 0.156734,0.537662 0.230008,0.605046 0.07328,0.06738 0.615649,0.172671 0.615649,0.172671 0,0 -0.525621,0.105189 -0.588156,0.172573 -0.06255,0.06738 -0.133633,0.605147 -0.133633,0.605147 z" />
      <path
         id="rect6253-7-8-9-0-2"
         style="fill:#eeeeee;fill-opacity:1;stroke:#eeeeee;stroke-width:0.12;stroke-linecap:round;stroke-linejoin:round;stroke-miterlimit:4;stroke-dasharray:none;stroke-opacity:1;paint-order:normal"
         d="m 45.604664,81.470882 c 0,0 -0.148202,-0.530002 -0.221477,-0.597389 -0.07328,-0.06738 -0.624179,-0.18033 -0.624179,-0.18033 0,0 0.532912,-0.113059 0.59545,-0.180429 0.06254,-0.06738 0.126338,-0.597288 0.126338,-0.597288 0,0 0.156734,0.537661 0.230008,0.605045 0.07328,0.06738 0.61565,0.172672 0.61565,0.172672 0,0 -0.52562,0.105189 -0.588156,0.172573 -0.06255,0.06738 -0.133634,0.605146 -0.133634,0.605146 z" />
      <g
         aria-label="AINoon"
         id="text172"
         style="font-size:5.05801px;fill:#422400;stroke-width:0.4215"
         transform="translate(0.5753524)">
        <path
           d="m 33.651727,91.446571 q 0.268074,-0.748585 0.495685,-1.355546 0.22761,-0.61202 0.445105,-1.132995 0.222552,-0.526033 0.460279,-1.01666 h 0.652483 q 0.17703,0.369235 0.343945,0.758702 0.166914,0.384409 0.333828,0.804223 0.166915,0.419815 0.343945,0.900326 0.182088,0.480511 0.379351,1.04195 h -0.73847 q -0.06575,-0.20232 -0.141624,-0.399582 -0.07081,-0.202321 -0.136566,-0.404641 h -1.441533 q -0.07081,0.20232 -0.146683,0.404641 -0.07081,0.197262 -0.131508,0.399582 z m 1.163342,-1.355546 h 1.102646 q -0.08093,-0.237727 -0.161856,-0.450163 -0.08093,-0.217495 -0.156798,-0.399583 -0.07081,-0.187146 -0.131509,-0.333829 -0.0607,-0.15174 -0.106218,-0.263016 -0.04046,0.111276 -0.10116,0.263016 -0.05564,0.146683 -0.131508,0.333829 -0.07081,0.182088 -0.151741,0.399583 -0.08093,0.212436 -0.161856,0.450163 z"
           style="font-weight:bold;font-family:Ubuntu;-inkscape-font-specification:'Ubuntu, Normal'"
           id="path1783" />
        <path
           d="M 37.37841,91.446571 V 87.94137 h 0.692948 v 3.505201 z"
           style="font-weight:bold;font-family:Ubuntu;-inkscape-font-specification:'Ubuntu, Normal'"
           id="path1785" />
        <path
           d="M 38.613456,91.446571 V 87.94137 h 0.561439 q 0.15174,0.156799 0.323713,0.364177 0.171972,0.20232 0.35406,0.440047 0.182089,0.232668 0.359119,0.480511 0.182088,0.247842 0.349003,0.490627 0.166914,0.242784 0.308538,0.465337 V 87.94137 h 0.682832 v 3.505201 h -0.576613 q -0.131509,-0.237726 -0.288307,-0.485569 -0.15174,-0.2529 -0.323713,-0.510859 -0.166914,-0.263016 -0.349002,-0.510859 -0.177031,-0.2529 -0.359119,-0.490627 -0.182088,-0.237726 -0.359119,-0.445105 v 2.443019 z"
           style="font-weight:bold;font-family:Ubuntu;-inkscape-font-specification:'Ubuntu, Normal'"
           id="path1787" />
        <path
           d="m 43.198596,91.512325 q -0.37935,0 -0.672715,-0.171972 -0.288307,-0.17703 -0.450163,-0.490627 -0.161856,-0.313596 -0.161856,-0.733411 0,-0.419815 0.166914,-0.728354 0.166915,-0.308538 0.455221,-0.485569 0.293365,-0.17703 0.662599,-0.17703 0.374293,0 0.6626,0.17703 0.293364,0.171973 0.455221,0.485569 0.161856,0.308539 0.161856,0.728354 0,0.419815 -0.161856,0.733411 -0.156799,0.313597 -0.445105,0.490627 -0.283249,0.171972 -0.672716,0.171972 z m 0,-0.566497 q 0.192205,0 0.323713,-0.10116 0.136566,-0.10116 0.207378,-0.288306 0.07587,-0.187147 0.07587,-0.440047 0,-0.252901 -0.07587,-0.434989 -0.07081,-0.182089 -0.207378,-0.283249 -0.131508,-0.10116 -0.323713,-0.10116 -0.192204,0 -0.32877,0.10116 -0.136567,0.10116 -0.207379,0.283249 -0.07081,0.182088 -0.07081,0.434989 0,0.2529 0.07081,0.440047 0.07081,0.182088 0.207379,0.288306 0.136566,0.10116 0.32877,0.10116 z"
           style="font-weight:bold;font-family:Ubuntu;-inkscape-font-specification:'Ubuntu, Normal'"
           id="path1789" />
        <path
           d="m 46.12471,91.512325 q -0.37935,0 -0.672715,-0.171972 -0.288305,-0.17703 -0.450163,-0.490627 -0.161856,-0.313596 -0.161856,-0.733411 0,-0.419815 0.166914,-0.728354 0.166915,-0.308538 0.455221,-0.485569 0.293365,-0.17703 0.662599,-0.17703 0.374293,0 0.6626,0.17703 0.293364,0.171973 0.455221,0.485569 0.161856,0.308539 0.161856,0.728354 0,0.419815 -0.161856,0.733411 -0.156799,0.313597 -0.445105,0.490627 -0.283249,0.171972 -0.672716,0.171972 z m 0,-0.566497 q 0.192205,0 0.323713,-0.10116 0.136566,-0.10116 0.207378,-0.288306 0.07587,-0.187147 0.07587,-0.440047 0,-0.252901 -0.07587,-0.434989 -0.07081,-0.182089 -0.207378,-0.283249 -0.131508,-0.10116 -0.323713,-0.10116 -0.192204,0 -0.32877,0.10116 -0.136566,0.10116 -0.207379,0.283249 -0.07081,0.182088 -0.07081,0.434989 0,0.2529 0.07081,0.440047 0.07081,0.182088 0.207379,0.288306 0.136566,0.10116 0.32877,0.10116 z"
           style="font-weight:bold;font-family:Ubuntu;-inkscape-font-specification:'Ubuntu, Normal'"
           id="path1791" />
        <path
           d="m 47.766089,91.446571 v -2.559353 q 0.182089,-0.05058 0.470395,-0.10116 0.293365,-0.05058 0.632251,-0.05058 0.445105,0 0.68789,0.156798 0.247842,0.151741 0.343944,0.424873 0.101161,0.273133 0.101161,0.637309 v 1.492113 h -0.657542 v -1.401068 q 0,-0.268075 -0.05058,-0.429931 -0.04552,-0.166915 -0.156798,-0.237727 -0.111276,-0.07587 -0.313597,-0.07587 -0.116334,0 -0.22761,0.01517 -0.106218,0.01012 -0.171972,0.02023 v 2.10919 z"
           style="font-weight:bold;font-family:Ubuntu;-inkscape-font-specification:'Ubuntu, Normal'"
           id="path1793" />
      </g>
    </g>
  </g>
</svg>
