<?xml version="1.0" encoding="UTF-8" standalone="no"?>
<!-- Created with Inkscape (http://www.inkscape.org/) -->

<svg
   width="26.008337mm"
   height="35.977741mm"
   viewBox="0 0 26.008338 35.977742"
   version="1.1"
   id="svg4917"
   inkscape:version="1.1.2 (0a00cf5339, 2022-02-04)"
   sodipodi:docname="gitnoon-sticker.svg"
   xmlns:inkscape="http://www.inkscape.org/namespaces/inkscape"
   xmlns:sodipodi="http://sodipodi.sourceforge.net/DTD/sodipodi-0.dtd"
   xmlns="http://www.w3.org/2000/svg"
   xmlns:svg="http://www.w3.org/2000/svg">
  <sodipodi:namedview
     id="namedview4919"
     pagecolor="#ffffff"
     bordercolor="#666666"
     borderopacity="1.0"
     inkscape:pageshadow="2"
     inkscape:pageopacity="0.0"
     inkscape:pagecheckerboard="0"
     inkscape:document-units="mm"
     showgrid="false"
     fit-margin-top="1"
     fit-margin-left="1"
     fit-margin-right="1"
     fit-margin-bottom="1"
     inkscape:zoom="8"
     inkscape:cx="48.375"
     inkscape:cy="107.0625"
     inkscape:window-width="1856"
     inkscape:window-height="1016"
     inkscape:window-x="0"
     inkscape:window-y="0"
     inkscape:window-maximized="1"
     inkscape:current-layer="layer1"
     inkscape:object-paths="true" />
  <defs
     id="defs4914" />
  <g
     inkscape:label="Layer 1"
     inkscape:groupmode="layer"
     id="layer1"
     transform="translate(-97.058504,-116.74505)">
    <g
       id="g28491">
      <rect
         style="opacity:1;fill:#ffffff;fill-opacity:1;stroke-width:0.600002;stroke-linejoin:round;paint-order:markers fill stroke"
         id="rect27296"
         width="24.039028"
         height="5.050806"
         x="98.062599"
         y="146.6543"
         ry="2.525403" />
      <rect
         style="opacity:1;fill:#ffffff;fill-opacity:1;stroke-width:0.600002;stroke-linejoin:round;paint-order:markers fill stroke"
         id="rect27296-0"
         width="24.039028"
         height="2.4636211"
         x="98.062599"
         y="149.2415"
         ry="1.3863198e-14" />
    </g>
    <g
       id="g27127">
      <path
         style="fill:#633700;fill-opacity:1;stroke:none;stroke-width:0.264584px;stroke-linecap:butt;stroke-linejoin:miter;stroke-opacity:1"
         d="m 111.25692,121.03289 c 1.39276,0.20429 2.77809,-0.80331 2.99242,-0.47453 0.31719,0.55216 -0.61976,2.14526 -2.63973,2.8112 -5.61852,1.8523 -9.14523,-0.43672 -7.6012,-2.50314 1.63214,-2.18433 4.75129,-0.19981 7.24851,0.16647 z"
         id="path3575-0-6-6-6-9-1-6-6-5-6-0"
         inkscape:connector-curvature="0"
         sodipodi:nodetypes="scsss" />
      <ellipse
         style="vector-effect:none;fill:#422400;fill-opacity:1;stroke:none;stroke-width:1.32292;stroke-linecap:round;stroke-linejoin:round;stroke-miterlimit:10;stroke-dasharray:none;stroke-dashoffset:0;stroke-opacity:1;paint-order:normal"
         id="path3633-3-2-7-7-1-0-9-8-6-7-9"
         cx="-91.447693"
         cy="136.12038"
         rx="3.3767304"
         ry="0.93689615"
         transform="matrix(-0.99073323,0.13582218,0.13582218,0.99073323,0,0)"
         inkscape:transform-center-x="-0.41233696"
         inkscape:transform-center-y="-0.52146204" />
      <circle
         style="fill:#82b1d7;fill-opacity:1;stroke:#000000;stroke-width:0.5;stroke-linecap:round;stroke-linejoin:round;stroke-miterlimit:4;stroke-dasharray:none;stroke-opacity:1"
         id="path1718-6-3-5-2-63-3-8-3-5-3"
         cx="-123.60359"
         cy="108.98661"
         r="3"
         transform="rotate(-90)" />
      <circle
         style="fill:#306998;fill-opacity:1;stroke:#000000;stroke-width:0.5;stroke-linecap:round;stroke-linejoin:round;stroke-miterlimit:4;stroke-dasharray:none;stroke-opacity:1"
         id="path1718-6-3-3-3-7-2-7-4-9-3-6"
         cx="-133.48242"
         cy="109.01142"
         r="3"
         transform="rotate(-90)" />
      <path
         style="fill:#915000;fill-opacity:1;stroke:none;stroke-width:0.264584px;stroke-linecap:butt;stroke-linejoin:miter;stroke-opacity:1"
         d="m 111.23996,121.32424 0.47437,-0.0492 -0.11882,-2.25126 c -0.22689,-2.04025 -4.751,-1.34095 -5.18948,0.0276 -0.0638,0.19894 0,2.2083 0,2.2083 z"
         id="path3573-1-5-3-5-0-0-2-3-4-5-0"
         inkscape:connector-curvature="0"
         sodipodi:nodetypes="cccscc" />
      <path
         inkscape:connector-curvature="0"
         style="fill:#633700;fill-opacity:1;stroke:none;stroke-width:0.264584px;stroke-linecap:butt;stroke-linejoin:miter;stroke-opacity:1"
         d="m 106.13303,119.85657 c 1.57844,-0.002 3.48511,0.93593 5.12391,1.1763 1.39276,0.20429 2.77804,-0.80329 2.99237,-0.47452 0.1286,0.22386 0.051,0.61882 -0.22127,1.05371 l -1.64977,0.24188 a 0.93689612,3.3767305 82.193836 0 0 -3.41715,-0.34377 0.93689612,3.3767305 82.193836 0 0 -3.21786,1.31668 l -1.49873,0.21978 c -0.68198,-0.60644 -0.81253,-1.40878 -0.23612,-2.18022 0.56105,-0.75087 1.29781,-1.00913 2.12462,-1.00984 z"
         id="path3575-0-7-1-3-6-9-6-5-1-8-6-6" />
      <rect
         style="fill:#000000;fill-opacity:1;stroke:none;stroke-width:0.408028;stroke-linecap:round;stroke-linejoin:round;stroke-miterlimit:4;stroke-dasharray:none;stroke-opacity:1"
         id="rect4684-2-3-1-47-4-1-2-2"
         width="0.60941869"
         height="3.8323419"
         x="108.6702"
         y="126.63721" />
      <circle
         style="fill:#306998;fill-opacity:1;stroke:#000000;stroke-width:0.5;stroke-linecap:round;stroke-linejoin:round;stroke-miterlimit:4;stroke-dasharray:none;stroke-opacity:1"
         id="path1718-6-3-3-3-7-2-5-5-6-3-9-2-9-6"
         cx="127.96132"
         cy="116.609"
         r="3"
         transform="matrix(0,1,1,0,0,0)" />
      <rect
         style="fill:#000000;fill-opacity:1;stroke:none;stroke-width:0.408028;stroke-linecap:round;stroke-linejoin:round;stroke-miterlimit:4;stroke-dasharray:none;stroke-opacity:1"
         id="rect4684-2-3-1-4-7-5-0-2-9-1-1"
         width="0.60941869"
         height="3.8323419"
         x="-173.79424"
         y="-3.2898192"
         transform="rotate(-131.23461)" />
      <circle
         style="fill:#306998;fill-opacity:1;stroke:#000000;stroke-width:0.5;stroke-linecap:round;stroke-linejoin:round;stroke-miterlimit:4;stroke-dasharray:none;stroke-opacity:1"
         id="path1718-6-3-3-3-7-6-7-0-3-2-8"
         cx="-143.03693"
         cy="108.8059"
         r="3"
         transform="rotate(-90)" />
      <rect
         style="fill:#000000;fill-opacity:1;stroke:none;stroke-width:0.408028;stroke-linecap:round;stroke-linejoin:round;stroke-miterlimit:4;stroke-dasharray:none;stroke-opacity:1"
         id="rect4684-2-3-0-8-6-9-7-7"
         width="0.60941869"
         height="3.8323419"
         x="108.46468"
         y="136.19171" />
    </g>
    <g
       id="g27114"
       transform="matrix(0.57466741,0,0,0.57466741,40.615459,53.701198)"
       style="stroke-width:1.74014">
      <path
         d="m 104.12867,163.91185 q -1.23514,0 -1.79039,0.69122 -0.54391,0.6799 -0.54391,1.86972 0,0.57791 0.13597,1.05384 0.13598,0.46459 0.40794,0.80454 0.27196,0.33995 0.6799,0.53259 0.40794,0.1813 0.95185,0.1813 0.29462,0 0.49859,-0.0113 0.2153,-0.0113 0.37395,-0.0453 v -2.73091 h 1.76773 v 3.88674 q -0.31729,0.12464 -1.01985,0.26062 -0.70256,0.14731 -1.73373,0.14731 -0.88387,0 -1.60909,-0.27195 -0.71389,-0.27196 -1.22377,-0.79322 -0.50986,-0.52125 -0.79314,-1.28047 -0.271955,-0.75921 -0.271955,-1.73373 0,-0.98585 0.305955,-1.74507 0.30593,-0.75922 0.83846,-1.28047 0.53254,-0.53258 1.24643,-0.80454 0.72523,-0.27196 1.5411,-0.27196 0.55525,0 0.99718,0.0793 0.45327,0.068 0.77055,0.16997 0.32862,0.0907 0.53259,0.19264 0.2153,0.10199 0.30595,0.15864 l -0.50992,1.41645 q -0.36261,-0.19263 -0.83854,-0.32861 -0.4646,-0.14731 -1.01985,-0.14731 z"
         style="font-weight:bold;font-size:11.3316px;line-height:1.25;font-family:Ubuntu;-inkscape-font-specification:'Ubuntu, Bold';fill:#422400;fill-opacity:1;stroke-width:0.460411"
         id="path27039" />
      <path
         d="m 109.30533,170.40485 h -1.68841 v -5.96042 h 1.68841 z m 0.15864,-7.68282 q 0,0.46459 -0.30595,0.73655 -0.29463,0.26063 -0.70256,0.26063 -0.40794,0 -0.71389,-0.26063 -0.29463,-0.27196 -0.29463,-0.73655 0,-0.4646 0.29463,-0.72522 0.30595,-0.27196 0.71389,-0.27196 0.40793,0 0.70256,0.27196 0.30595,0.26062 0.30595,0.72522 z"
         style="font-weight:bold;font-size:11.3316px;line-height:1.25;font-family:Ubuntu;-inkscape-font-specification:'Ubuntu, Bold';fill:#422400;fill-opacity:1;stroke-width:0.460411"
         id="path27041" />
      <path
         d="m 110.30062,162.95999 1.6884,-0.27196 v 1.7564 h 2.02836 v 1.40512 h -2.02836 v 2.09635 q 0,0.53258 0.18131,0.84987 0.19264,0.31728 0.75922,0.31728 0.27196,0 0.55525,-0.0453 0.29462,-0.0566 0.53258,-0.14731 l 0.23796,1.31447 q -0.30595,0.12465 -0.67989,0.2153 -0.37394,0.0906 -0.91786,0.0906 -0.69123,0 -1.14449,-0.1813 -0.45327,-0.19264 -0.72522,-0.52126 -0.27196,-0.33994 -0.38528,-0.81587 -0.10198,-0.47593 -0.10198,-1.05384 z"
         style="font-weight:bold;font-size:11.3316px;line-height:1.25;font-family:Ubuntu;-inkscape-font-specification:'Ubuntu, Bold';fill:#422400;fill-opacity:1;stroke-width:0.460411"
         id="path27043" />
      <path
         d="m 120.61019,170.40485 q -0.79509,-1.41219 -1.72073,-2.78878 -0.92564,-1.37658 -1.96994,-2.5989 v 5.38768 h -1.82754 v -8.22392 h 1.50713 q 0.39161,0.39162 0.8663,0.96124 0.47468,0.56962 0.96123,1.22231 0.49842,0.64083 0.98497,1.34099 0.48656,0.68829 0.91377,1.32911 v -4.85365 h 1.8394 v 8.22392 z"
         style="font-weight:bold;font-size:28.2222px;line-height:1.25;font-family:Ubuntu;-inkscape-font-specification:'Ubuntu Bold';fill:#422400;fill-opacity:1;stroke-width:0.460411"
         id="path18348" />
      <path
         d="m 128.89342,167.27193 q 0,0.73576 -0.21361,1.35285 -0.21361,0.60522 -0.61709,1.0443 -0.40348,0.42722 -0.9731,0.66457 -0.55776,0.23734 -1.25792,0.23734 -0.68829,0 -1.25791,-0.23734 -0.55776,-0.23735 -0.96124,-0.66457 -0.40348,-0.43908 -0.62896,-1.0443 -0.22547,-0.61709 -0.22547,-1.35285 0,-0.73577 0.22547,-1.34099 0.23734,-0.60522 0.64083,-1.03244 0.41535,-0.42721 0.9731,-0.66456 0.56963,-0.23734 1.23418,-0.23734 0.67643,0 1.23418,0.23734 0.56962,0.23735 0.97311,0.66456 0.40348,0.42722 0.62895,1.03244 0.22548,0.60522 0.22548,1.34099 z m -1.8038,0 q 0,-0.81883 -0.33228,-1.28165 -0.32041,-0.47469 -0.92564,-0.47469 -0.60522,0 -0.9375,0.47469 -0.33228,0.46282 -0.33228,1.28165 0,0.81883 0.33228,1.30538 0.33228,0.47469 0.9375,0.47469 0.60523,0 0.92564,-0.47469 0.33228,-0.48655 0.33228,-1.30538 z"
         style="font-weight:bold;font-size:28.2222px;line-height:1.25;font-family:Ubuntu;-inkscape-font-specification:'Ubuntu Bold';fill:#422400;fill-opacity:1;stroke-width:0.460411"
         id="path18350" />
      <path
         d="m 135.65172,167.27193 q 0,0.73576 -0.2136,1.35285 -0.21361,0.60522 -0.61709,1.0443 -0.40349,0.42722 -0.97311,0.66457 -0.55775,0.23734 -1.25791,0.23734 -0.6883,0 -1.25792,-0.23734 -0.55775,-0.23735 -0.96123,-0.66457 -0.40348,-0.43908 -0.62896,-1.0443 -0.22548,-0.61709 -0.22548,-1.35285 0,-0.73577 0.22548,-1.34099 0.23734,-0.60522 0.64082,-1.03244 0.41535,-0.42721 0.9731,-0.66456 0.56963,-0.23734 1.23419,-0.23734 0.67642,0 1.23418,0.23734 0.56962,0.23735 0.9731,0.66456 0.40348,0.42722 0.62896,1.03244 0.22547,0.60522 0.22547,1.34099 z m -1.8038,0 q 0,-0.81883 -0.33228,-1.28165 -0.32041,-0.47469 -0.92563,-0.47469 -0.60523,0 -0.9375,0.47469 -0.33228,0.46282 -0.33228,1.28165 0,0.81883 0.33228,1.30538 0.33227,0.47469 0.9375,0.47469 0.60522,0 0.92563,-0.47469 0.33228,-0.48655 0.33228,-1.30538 z"
         style="font-weight:bold;font-size:28.2222px;line-height:1.25;font-family:Ubuntu;-inkscape-font-specification:'Ubuntu Bold';fill:#422400;fill-opacity:1;stroke-width:0.460411"
         id="path18352" />
      <path
         d="m 136.34889,164.37635 q 0.45095,-0.13054 1.16298,-0.23734 0.71203,-0.11868 1.49526,-0.11868 0.7951,0 1.31725,0.21361 0.53402,0.20174 0.84256,0.58149 0.30855,0.37975 0.43909,0.9019 0.13053,0.52216 0.13053,1.16298 v 3.52454 h -1.76819 v -3.31093 q 0,-0.85443 -0.22548,-1.21045 -0.22548,-0.35601 -0.84257,-0.35601 -0.18987,0 -0.40348,0.0237 -0.21361,0.0119 -0.37975,0.0356 v 4.81805 h -1.7682 z"
         style="font-weight:bold;font-size:28.2222px;line-height:1.25;font-family:Ubuntu;-inkscape-font-specification:'Ubuntu Bold';fill:#422400;fill-opacity:1;stroke-width:0.460411"
         id="path18354" />
    </g>
  </g>
</svg>
