<?xml version="1.0" encoding="UTF-8" standalone="no"?>
<!-- Created with Inkscape (http://www.inkscape.org/) -->

<svg
   width="11mm"
   height="11mm"
   viewBox="0 0 11 11"
   version="1.1"
   id="svg985"
   inkscape:version="1.1.2 (0a00cf5339, 2022-02-04)"
   sodipodi:docname="favicon.svg"
   xmlns:inkscape="http://www.inkscape.org/namespaces/inkscape"
   xmlns:sodipodi="http://sodipodi.sourceforge.net/DTD/sodipodi-0.dtd"
   xmlns="http://www.w3.org/2000/svg"
   xmlns:svg="http://www.w3.org/2000/svg">
  <sodipodi:namedview
     id="namedview987"
     pagecolor="#ffffff"
     bordercolor="#666666"
     borderopacity="1.0"
     inkscape:pageshadow="2"
     inkscape:pageopacity="0.0"
     inkscape:pagecheckerboard="0"
     inkscape:document-units="mm"
     showgrid="false"
     fit-margin-top="0.2"
     fit-margin-left="0.2"
     fit-margin-right="0.2"
     fit-margin-bottom="0.2"
     inkscape:zoom="11.146352"
     inkscape:cx="17.987947"
     inkscape:cy="27.811789"
     inkscape:window-width="1920"
     inkscape:window-height="1043"
     inkscape:window-x="0"
     inkscape:window-y="0"
     inkscape:window-maximized="1"
     inkscape:current-layer="layer1" />
  <defs
     id="defs982" />
  <g
     inkscape:label="Layer 1"
     inkscape:groupmode="layer"
     id="layer1"
     transform="translate(-139.54917,-100.06926)">
    <g
       id="g1080"
       transform="translate(-0.03267143,0.74573122)">
      <path
         style="fill:#633700;fill-opacity:1;stroke:none;stroke-width:0.264584px;stroke-linecap:butt;stroke-linejoin:miter;stroke-opacity:1"
         d="m 147.36158,103.5571 c 1.39276,0.20429 2.77809,-0.80331 2.99242,-0.47453 0.31719,0.55216 -0.61976,2.14526 -2.63973,2.8112 -5.61852,1.8523 -9.14523,-0.43672 -7.6012,-2.50314 1.63214,-2.18433 4.75129,-0.19981 7.24851,0.16647 z"
         id="path3575-0-6-6-6-9-1-6-6-5-6-0"
         inkscape:connector-curvature="0"
         sodipodi:nodetypes="scsss" />
      <ellipse
         style="vector-effect:none;fill:#422400;fill-opacity:1;stroke:none;stroke-width:1.32292;stroke-linecap:round;stroke-linejoin:round;stroke-miterlimit:10;stroke-dasharray:none;stroke-dashoffset:0;stroke-opacity:1;paint-order:normal"
         id="path3633-3-2-7-7-1-0-9-8-6-7-9"
         cx="-129.59138"
         cy="123.71034"
         rx="3.3767304"
         ry="0.93689615"
         transform="matrix(-0.99073323,0.13582218,0.13582218,0.99073323,0,0)"
         inkscape:transform-center-x="-0.41233696"
         inkscape:transform-center-y="-0.52146204" />
      <circle
         style="fill:#82b1d7;fill-opacity:1;stroke:#000000;stroke-width:0.5;stroke-linecap:round;stroke-linejoin:round;stroke-miterlimit:4;stroke-dasharray:none;stroke-opacity:1"
         id="path1718-6-3-5-2-63-3-8-3-5-3"
         cx="-106.1278"
         cy="145.09126"
         r="3"
         transform="rotate(-90)" />
      <path
         style="fill:#915000;fill-opacity:1;stroke:none;stroke-width:0.264584px;stroke-linecap:butt;stroke-linejoin:miter;stroke-opacity:1"
         d="m 147.34462,103.84845 0.47437,-0.0492 -0.11882,-2.25126 c -0.22689,-2.04025 -4.751,-1.34095 -5.18948,0.0276 -0.0638,0.19894 0,2.2083 0,2.2083 z"
         id="path3573-1-5-3-5-0-0-2-3-4-5-0"
         inkscape:connector-curvature="0"
         sodipodi:nodetypes="cccscc" />
      <path
         inkscape:connector-curvature="0"
         style="fill:#633700;fill-opacity:1;stroke:none;stroke-width:0.264584px;stroke-linecap:butt;stroke-linejoin:miter;stroke-opacity:1"
         d="m 142.23769,102.38078 c 1.57844,-0.002 3.48511,0.93593 5.12391,1.1763 1.39276,0.20429 2.77804,-0.80329 2.99237,-0.47452 0.1286,0.22386 0.051,0.61882 -0.22127,1.05371 l -1.64977,0.24188 a 0.93689612,3.3767305 82.193836 0 0 -3.41715,-0.34377 0.93689612,3.3767305 82.193836 0 0 -3.21786,1.31668 l -1.49873,0.21978 c -0.68198,-0.60644 -0.81253,-1.40878 -0.23612,-2.18022 0.56105,-0.75087 1.29781,-1.00913 2.12462,-1.00984 z"
         id="path3575-0-7-1-3-6-9-6-5-1-8-6-6" />
    </g>
  </g>
</svg>
