<?xml version="1.0" encoding="UTF-8" standalone="no"?>
<!-- Created with Inkscape (http://www.inkscape.org/) -->

<svg
   width="81.604553mm"
   height="24.441919mm"
   viewBox="0 0 81.604553 24.441919"
   version="1.1"
   id="svg388"
   inkscape:version="1.1.2 (0a00cf5339, 2022-02-04)"
   sodipodi:docname="header.svg"
   xmlns:inkscape="http://www.inkscape.org/namespaces/inkscape"
   xmlns:sodipodi="http://sodipodi.sourceforge.net/DTD/sodipodi-0.dtd"
   xmlns="http://www.w3.org/2000/svg"
   xmlns:svg="http://www.w3.org/2000/svg">
  <sodipodi:namedview
     id="namedview390"
     pagecolor="#ffffff"
     bordercolor="#000000"
     borderopacity="0.25"
     inkscape:showpageshadow="2"
     inkscape:pageopacity="0.0"
     inkscape:pagecheckerboard="0"
     inkscape:deskcolor="#d1d1d1"
     inkscape:document-units="mm"
     showgrid="false"
     inkscape:zoom="0.89263468"
     inkscape:cx="279.50964"
     inkscape:cy="297.99425"
     inkscape:window-width="1920"
     inkscape:window-height="1043"
     inkscape:window-x="1920"
     inkscape:window-y="0"
     inkscape:window-maximized="1"
     inkscape:current-layer="layer1"
     inkscape:pageshadow="2"
     fit-margin-left="2"
     fit-margin-right="2"
     fit-margin-top="7"
     fit-margin-bottom="7" />
  <defs
     id="defs385" />
  <g
     inkscape:label="Layer 1"
     inkscape:groupmode="layer"
     id="layer1"
     transform="translate(-31.521078,-69.883831)">
    <path
       d="m 55.79532,86.768028 h -2.03433 v -7.647247 h -2.61364 v -1.638695 h 7.26162 v 1.638695 h -2.61365 z"
       style="font-weight:bold;font-size:13.2369px;-inkscape-font-specification:'sans-serif Bold';fill:#2a1600;stroke-width:0.155119"
       id="path3471" />
    <path
       d="m 60.75915,79.536958 q 1.52238,0 2.41156,0.845359 0.88918,0.832353 0.88918,2.380011 v 0.936397 h -4.74228 q 0.027,0.819349 0.49847,1.287547 0.48501,0.468198 1.33377,0.468198 0.71404,0 1.29336,-0.130055 0.5793,-0.14306 1.19904,-0.429181 v 1.495634 q -0.5389,0.260111 -1.14516,0.37716 -0.59278,0.130056 -1.44154,0.130056 -1.10474,0 -1.9535,-0.390166 -0.84876,-0.403171 -1.33377,-1.209513 -0.48501,-0.806343 -0.48501,-2.028862 0,-1.24853 0.43112,-2.067878 0.44459,-0.832354 1.22599,-1.24853 0.7814,-0.416177 1.81877,-0.416177 z m 0.0134,1.378585 q -0.57931,0 -0.97001,0.364155 -0.37723,0.364155 -0.44458,1.131481 h 2.81573 q -0.0134,-0.650276 -0.35029,-1.066453 -0.33676,-0.429183 -1.0508,-0.429183 z"
       style="font-weight:bold;font-size:13.2369px;-inkscape-font-specification:'sans-serif Bold';fill:#2a1600;stroke-width:0.155119"
       id="path3473" />
    <path
       d="m 68.15175,86.898084 q -1.64364,0 -2.54629,-0.87137 -0.88917,-0.884375 -0.88917,-2.770177 0,-1.300552 0.45806,-2.119899 0.45806,-0.819349 1.2664,-1.209514 0.82182,-0.390166 1.88614,-0.390166 0.75445,0 1.30682,0.143061 0.56583,0.143061 0.98349,0.338143 l -0.59279,1.495636 q -0.47154,-0.182078 -0.88918,-0.299128 -0.40417,-0.117049 -0.80834,-0.117049 -1.5628,0 -1.5628,2.145911 0,1.066453 0.40417,1.573668 0.41765,0.507215 1.15863,0.507215 0.6332,0 1.11821,-0.156065 0.48501,-0.169072 0.94306,-0.455194 v 1.651701 q -0.45805,0.286122 -0.97001,0.403171 -0.49848,0.130056 -1.2664,0.130056 z"
       style="font-weight:bold;font-size:13.2369px;-inkscape-font-specification:'sans-serif Bold';fill:#2a1600;stroke-width:0.155119"
       id="path3475" />
    <path
       d="m 73.5639,78.899688 q 0,0.520221 -0.0404,1.001425 -0.027,0.481204 -0.0539,0.676287 h 0.10778 q 0.35028,-0.546232 0.90266,-0.793337 0.55236,-0.247105 1.22598,-0.247105 1.19904,0 1.91308,0.624265 0.72751,0.611259 0.72751,1.97684 v 4.629965 h -2.00744 v -4.148761 q 0,-1.534652 -1.18557,-1.534652 -0.90265,0 -1.25293,0.61126 -0.33681,0.598254 -0.33681,1.729734 v 3.342419 h -2.00739 v -9.884197 h 2.00739 z"
       style="font-weight:bold;font-size:13.2369px;-inkscape-font-specification:'sans-serif Bold';fill:#2a1600;stroke-width:0.155119"
       id="path3477" />
    <path
       d="m 88.03923,86.768028 h -2.58671 l -4.18991,-7.022982 h -0.0538 q 0.027,0.663282 0.0538,1.326564 0.0404,0.663281 0.0674,1.326563 v 4.369855 h -1.81877 v -9.285942 h 2.57323 l 4.17644,6.957954 h 0.0404 q -0.0134,-0.650276 -0.0404,-1.287547 -0.027,-0.63727 -0.0538,-1.274541 v -4.395866 h 1.83225 z"
       style="font-weight:bold;font-size:13.2369px;-inkscape-font-specification:'sans-serif Bold';fill:#2a1600;stroke-width:0.155119"
       id="path3479" />
    <path
       d="m 95.92655,83.204516 q 0,1.76875 -0.97001,2.731159 -0.95654,0.962409 -2.61365,0.962409 -1.02389,0 -1.83224,-0.429182 -0.79487,-0.429183 -1.25293,-1.248531 -0.45806,-0.832353 -0.45806,-2.015855 0,-1.768752 0.95654,-2.718154 0.95654,-0.949404 2.62711,-0.949404 1.03738,0 1.83225,0.429182 0.79487,0.429182 1.25293,1.24853 0.45806,0.806343 0.45806,1.989846 z m -5.07909,0 q 0,1.053447 0.35029,1.599678 0.36374,0.533227 1.17209,0.533227 0.79487,0 1.14515,-0.533227 0.36376,-0.546231 0.36376,-1.599678 0,-1.053448 -0.36376,-1.573669 -0.35028,-0.533226 -1.15862,-0.533226 -0.79488,0 -1.15862,0.533226 -0.35029,0.520221 -0.35029,1.573669 z"
       style="font-weight:bold;font-size:13.2369px;-inkscape-font-specification:'sans-serif Bold';fill:#2a1600;stroke-width:0.155119"
       id="path3481" />
    <path
       d="m 103.73678,83.204516 q 0,1.76875 -0.97,2.731159 -0.95654,0.962409 -2.61365,0.962409 -1.0239,0 -1.83224,-0.429182 -0.79488,-0.429183 -1.25293,-1.248531 -0.45807,-0.832353 -0.45807,-2.015855 0,-1.768752 0.95654,-2.718154 0.95654,-0.949404 2.62712,-0.949404 1.03737,0 1.83225,0.429182 0.79486,0.429182 1.25293,1.24853 0.45805,0.806343 0.45805,1.989846 z m -5.07909,0 q 0,1.053447 0.35029,1.599678 0.36376,0.533227 1.17209,0.533227 0.79488,0 1.14516,-0.533227 0.36375,-0.546231 0.36375,-1.599678 0,-1.053448 -0.36375,-1.573669 -0.35028,-0.533226 -1.15863,-0.533226 -0.79486,0 -1.15862,0.533226 -0.35029,0.520221 -0.35029,1.573669 z"
       style="font-weight:bold;font-size:13.2369px;-inkscape-font-specification:'sans-serif Bold';fill:#2a1600;stroke-width:0.155119"
       id="path3483" />
    <path
       d="m 108.51198,79.536958 q 1.18558,0 1.89962,0.624265 0.71403,0.611259 0.71403,1.97684 v 4.629965 h -2.00739 v -4.148761 q 0,-0.767326 -0.28291,-1.144486 -0.28293,-0.390166 -0.90265,-0.390166 -0.91613,0 -1.25294,0.61126 -0.33681,0.598254 -0.33681,1.729734 v 3.342419 h -2.00739 v -7.101015 h 1.53586 l 0.26945,0.910387 h 0.10777 q 0.35028,-0.546232 0.95654,-0.793337 0.61973,-0.247105 1.30682,-0.247105 z"
       style="font-weight:bold;font-size:13.2369px;-inkscape-font-specification:'sans-serif Bold';fill:#2a1600;stroke-width:0.155119"
       id="path3485" />
    <g
       id="g186-3-1-3"
       transform="matrix(0.20426794,-0.00531986,0.00558998,0.19439699,14.7173,67.226946)">
      <path
         style="fill:#915000;fill-opacity:1;stroke:none;stroke-width:0.264583px;stroke-linecap:butt;stroke-linejoin:miter;stroke-opacity:1"
         d="M 155.73073,86.639465 154.6219,65.631184 c -1.85462,-16.677461 -38.83557,-10.961144 -42.41971,0.225652 -0.52103,1.626188 0,18.050954 0,18.050954 z"
         id="path3573-1-5-3-6-2-61"
         inkscape:connector-curvature="0"
         sodipodi:nodetypes="ccscc" />
      <path
         style="fill:#633700;fill-opacity:1;stroke:none;stroke-width:0.264583px;stroke-linecap:butt;stroke-linejoin:miter;stroke-opacity:1"
         d="m 151.85423,82.054016 c 11.38468,1.66991 22.70863,-6.566365 24.46061,-3.87899 2.59279,4.513612 -5.06598,17.53571 -21.57768,22.979244 -45.92679,15.141 -74.754788,-3.569885 -62.133528,-20.46117 13.341318,-17.855041 38.837888,-1.633253 59.250598,1.360916 z"
         id="path3575-0-6-6-7-7-29"
         inkscape:connector-curvature="0"
         sodipodi:nodetypes="scsss" />
      <ellipse
         style="vector-effect:none;fill:#422400;fill-opacity:1;stroke:none;stroke-width:1.32292;stroke-linecap:round;stroke-linejoin:round;stroke-miterlimit:10;stroke-dasharray:none;stroke-dashoffset:0;stroke-opacity:1;paint-order:normal"
         id="path3633-3-2-7-5-0-3"
         cx="-120.18024"
         cy="110.89304"
         rx="27.60202"
         ry="7.6583619"
         transform="matrix(-0.99073324,0.13582215,0.13582215,0.99073324,0,0)"
         inkscape:transform-center-x="-3.3704927"
         inkscape:transform-center-y="-4.262483" />
      <path
         inkscape:connector-curvature="0"
         style="fill:#633700;fill-opacity:1;stroke:none;stroke-width:0.264583px;stroke-linecap:butt;stroke-linejoin:miter;stroke-opacity:1"
         d="m 109.97054,72.438558 c 12.90254,-0.01103 28.48803,7.650411 41.88385,9.615337 11.38468,1.669912 22.70827,-6.566231 24.46022,-3.878852 1.05118,1.829878 0.41679,5.058372 -1.80875,8.613221 l -13.48548,1.97717 a 7.6583622,27.602019 82.193836 0 0 -27.93244,-2.809999 7.6583622,27.602019 82.193836 0 0 -26.30345,10.76271 l -12.250818,1.79656 c -5.57469,-4.9571 -6.64181,-11.515679 -1.93007,-17.821527 4.58609,-6.137673 10.608478,-8.248809 17.366938,-8.25462 z"
         id="path3575-0-7-1-3-3-9-19" />
    </g>
  </g>
</svg>
